<svg id="visual" viewBox="0 0 900 600" width="900" height="600" xmlns="http://www.w3.org/2000/svg" xmlns:xlink="http://www.w3.org/1999/xlink" version="1.1"><rect x="0" y="0" width="900" height="600" fill="#ffffff"></rect><path d="M0 262L129 262L129 347L257 347L257 321L386 321L386 283L514 283L514 293L643 293L643 314L771 314L771 366L900 366L900 355L900 601L900 601L771 601L771 601L643 601L643 601L514 601L514 601L386 601L386 601L257 601L257 601L129 601L129 601L0 601Z" fill="#2e2187"></path><path d="M0 366L129 366L129 361L257 361L257 462L386 462L386 445L514 445L514 435L643 435L643 362L771 362L771 411L900 411L900 407L900 601L900 601L771 601L771 601L643 601L643 601L514 601L514 601L386 601L386 601L257 601L257 601L129 601L129 601L0 601Z" fill="#1b1c69"></path><path d="M0 464L129 464L129 448L257 448L257 472L386 472L386 527L514 527L514 544L643 544L643 519L771 519L771 509L900 509L900 443L900 601L900 601L771 601L771 601L643 601L643 601L514 601L514 601L386 601L386 601L257 601L257 601L129 601L129 601L0 601Z" fill="#0f164b"></path></svg>