<svg id="visual" viewBox="0 0 900 600" width="900" height="600" xmlns="http://www.w3.org/2000/svg" xmlns:xlink="http://www.w3.org/1999/xlink" version="1.1"><g stroke-width="1" stroke-linejoin="bevel"><path d="M425 281L480 281L490 239Z" fill="#616a97" stroke="#ffffff"></path><path d="M490 239L411 174L425 281Z" fill="#616a97" stroke="#ffffff"></path><path d="M510 418L576 296L480 281Z" fill="#ffffff" stroke="#ffffff"></path><path d="M480 281L576 296L490 239Z" fill="#4a5789" stroke="#ffffff"></path><path d="M490 239L508 103L411 174Z" fill="#8d92b4" stroke="#ffffff"></path><path d="M411 174L332 169L425 281Z" fill="#d1d2e1" stroke="#ffffff"></path><path d="M332 169L297 274L425 281Z" fill="#15336d" stroke="#ffffff"></path><path d="M425 281L510 418L480 281Z" fill="#8d92b4" stroke="#ffffff"></path><path d="M625 226L508 103L490 239Z" fill="#15336d" stroke="#ffffff"></path><path d="M411 174L427 84L332 169Z" fill="#15336d" stroke="#ffffff"></path><path d="M508 103L427 84L411 174Z" fill="#babcd2" stroke="#ffffff"></path><path d="M576 296L625 226L490 239Z" fill="#616a97" stroke="#ffffff"></path><path d="M414 437L510 418L425 281Z" fill="#e8e8f0" stroke="#ffffff"></path><path d="M576 296L673 267L625 226Z" fill="#4a5789" stroke="#ffffff"></path><path d="M298 361L414 437L425 281Z" fill="#ffffff" stroke="#ffffff"></path><path d="M297 274L298 361L425 281Z" fill="#e8e8f0" stroke="#ffffff"></path><path d="M579 475L571 431L510 418Z" fill="#15336d" stroke="#ffffff"></path><path d="M510 418L571 431L576 296Z" fill="#8d92b4" stroke="#ffffff"></path><path d="M732 420L673 267L576 296Z" fill="#33447b" stroke="#ffffff"></path><path d="M625 226L638 73L508 103Z" fill="#8d92b4" stroke="#ffffff"></path><path d="M405 489L469 476L414 437Z" fill="#a3a7c3" stroke="#ffffff"></path><path d="M414 437L469 476L510 418Z" fill="#777ea6" stroke="#ffffff"></path><path d="M427 84L303 84L332 169Z" fill="#babcd2" stroke="#ffffff"></path><path d="M332 169L162 179L297 274Z" fill="#777ea6" stroke="#ffffff"></path><path d="M297 274L232 324L298 361Z" fill="#a3a7c3" stroke="#ffffff"></path><path d="M313 531L405 489L414 437Z" fill="#ffffff" stroke="#ffffff"></path><path d="M162 179L232 324L297 274Z" fill="#a3a7c3" stroke="#ffffff"></path><path d="M313 531L414 437L298 361Z" fill="#8d92b4" stroke="#ffffff"></path><path d="M673 267L696 212L625 226Z" fill="#33447b" stroke="#ffffff"></path><path d="M495 0L427 84L508 103Z" fill="#777ea6" stroke="#ffffff"></path><path d="M495 0L435 0L427 84Z" fill="#ffffff" stroke="#ffffff"></path><path d="M427 84L302 0L303 84Z" fill="#d1d2e1" stroke="#ffffff"></path><path d="M618 0L495 0L508 103Z" fill="#ffffff" stroke="#ffffff"></path><path d="M469 476L579 475L510 418Z" fill="#a3a7c3" stroke="#ffffff"></path><path d="M732 420L763 286L673 267Z" fill="#ffffff" stroke="#ffffff"></path><path d="M531 600L579 475L469 476Z" fill="#e8e8f0" stroke="#ffffff"></path><path d="M696 212L638 73L625 226Z" fill="#616a97" stroke="#ffffff"></path><path d="M108 375L204 367L232 324Z" fill="#4a5789" stroke="#ffffff"></path><path d="M232 324L204 367L298 361Z" fill="#a3a7c3" stroke="#ffffff"></path><path d="M435 0L302 0L427 84Z" fill="#4a5789" stroke="#ffffff"></path><path d="M198 80L162 179L332 169Z" fill="#33447b" stroke="#ffffff"></path><path d="M198 80L332 169L303 84Z" fill="#e8e8f0" stroke="#ffffff"></path><path d="M701 0L618 0L638 73Z" fill="#a3a7c3" stroke="#ffffff"></path><path d="M638 73L618 0L508 103Z" fill="#ffffff" stroke="#ffffff"></path><path d="M223 0L198 80L303 84Z" fill="#777ea6" stroke="#ffffff"></path><path d="M696 212L735 130L638 73Z" fill="#777ea6" stroke="#ffffff"></path><path d="M823 197L735 130L696 212Z" fill="#d1d2e1" stroke="#ffffff"></path><path d="M763 286L696 212L673 267Z" fill="#33447b" stroke="#ffffff"></path><path d="M170 491L313 531L298 361Z" fill="#d1d2e1" stroke="#ffffff"></path><path d="M405 489L531 600L469 476Z" fill="#babcd2" stroke="#ffffff"></path><path d="M732 420L576 296L571 431Z" fill="#777ea6" stroke="#ffffff"></path><path d="M579 475L732 420L571 431Z" fill="#777ea6" stroke="#ffffff"></path><path d="M135 121L122 213L162 179Z" fill="#a3a7c3" stroke="#ffffff"></path><path d="M162 179L122 213L232 324Z" fill="#a3a7c3" stroke="#ffffff"></path><path d="M302 0L223 0L303 84Z" fill="#ffffff" stroke="#ffffff"></path><path d="M198 80L135 121L162 179Z" fill="#8d92b4" stroke="#ffffff"></path><path d="M70 0L135 121L198 80Z" fill="#616a97" stroke="#ffffff"></path><path d="M735 130L701 0L638 73Z" fill="#4a5789" stroke="#ffffff"></path><path d="M366 600L531 600L405 489Z" fill="#ffffff" stroke="#ffffff"></path><path d="M579 475L735 513L732 420Z" fill="#8d92b4" stroke="#ffffff"></path><path d="M313 531L366 600L405 489Z" fill="#e8e8f0" stroke="#ffffff"></path><path d="M122 213L108 375L232 324Z" fill="#babcd2" stroke="#ffffff"></path><path d="M204 367L170 491L298 361Z" fill="#4a5789" stroke="#ffffff"></path><path d="M313 531L284 600L366 600Z" fill="#ffffff" stroke="#ffffff"></path><path d="M531 600L570 600L579 475Z" fill="#777ea6" stroke="#ffffff"></path><path d="M786 498L801 368L732 420Z" fill="#a3a7c3" stroke="#ffffff"></path><path d="M732 420L801 368L763 286Z" fill="#a3a7c3" stroke="#ffffff"></path><path d="M763 286L823 197L696 212Z" fill="#babcd2" stroke="#ffffff"></path><path d="M735 130L820 87L701 0Z" fill="#a3a7c3" stroke="#ffffff"></path><path d="M108 375L170 491L204 367Z" fill="#616a97" stroke="#ffffff"></path><path d="M900 303L823 197L763 286Z" fill="#ffffff" stroke="#ffffff"></path><path d="M714 600L735 513L579 475Z" fill="#777ea6" stroke="#ffffff"></path><path d="M209 600L284 600L313 531Z" fill="#8d92b4" stroke="#ffffff"></path><path d="M122 213L64 332L108 375Z" fill="#15336d" stroke="#ffffff"></path><path d="M108 375L136 524L170 491Z" fill="#d1d2e1" stroke="#ffffff"></path><path d="M0 274L64 332L122 213Z" fill="#777ea6" stroke="#ffffff"></path><path d="M823 197L820 87L735 130Z" fill="#777ea6" stroke="#ffffff"></path><path d="M769 600L786 498L735 513Z" fill="#15336d" stroke="#ffffff"></path><path d="M735 513L786 498L732 420Z" fill="#777ea6" stroke="#ffffff"></path><path d="M801 368L900 303L763 286Z" fill="#e8e8f0" stroke="#ffffff"></path><path d="M0 408L136 524L108 375Z" fill="#8d92b4" stroke="#ffffff"></path><path d="M170 491L209 600L313 531Z" fill="#e8e8f0" stroke="#ffffff"></path><path d="M136 524L209 600L170 491Z" fill="#e8e8f0" stroke="#ffffff"></path><path d="M570 600L714 600L579 475Z" fill="#4a5789" stroke="#ffffff"></path><path d="M900 436L900 303L801 368Z" fill="#4a5789" stroke="#ffffff"></path><path d="M823 197L900 173L820 87Z" fill="#33447b" stroke="#ffffff"></path><path d="M0 179L0 274L122 213Z" fill="#ffffff" stroke="#ffffff"></path><path d="M64 332L0 408L108 375Z" fill="#ffffff" stroke="#ffffff"></path><path d="M0 179L122 213L135 121Z" fill="#777ea6" stroke="#ffffff"></path><path d="M900 303L900 173L823 197Z" fill="#d1d2e1" stroke="#ffffff"></path><path d="M223 0L70 0L198 80Z" fill="#15336d" stroke="#ffffff"></path><path d="M0 138L0 179L135 121Z" fill="#8d92b4" stroke="#ffffff"></path><path d="M900 64L837 0L820 87Z" fill="#616a97" stroke="#ffffff"></path><path d="M820 87L837 0L701 0Z" fill="#777ea6" stroke="#ffffff"></path><path d="M70 0L0 138L135 121Z" fill="#a3a7c3" stroke="#ffffff"></path><path d="M714 600L769 600L735 513Z" fill="#ffffff" stroke="#ffffff"></path><path d="M786 498L900 436L801 368Z" fill="#777ea6" stroke="#ffffff"></path><path d="M0 274L0 408L64 332Z" fill="#8d92b4" stroke="#ffffff"></path><path d="M136 524L88 600L209 600Z" fill="#8d92b4" stroke="#ffffff"></path><path d="M900 481L900 436L786 498Z" fill="#4a5789" stroke="#ffffff"></path><path d="M900 173L900 64L820 87Z" fill="#15336d" stroke="#ffffff"></path><path d="M900 600L900 481L786 498Z" fill="#33447b" stroke="#ffffff"></path><path d="M0 512L88 600L136 524Z" fill="#babcd2" stroke="#ffffff"></path><path d="M900 64L900 0L837 0Z" fill="#4a5789" stroke="#ffffff"></path><path d="M70 0L0 0L0 138Z" fill="#616a97" stroke="#ffffff"></path><path d="M0 408L0 512L136 524Z" fill="#33447b" stroke="#ffffff"></path><path d="M769 600L900 600L786 498Z" fill="#a3a7c3" stroke="#ffffff"></path><path d="M0 512L0 600L88 600Z" fill="#616a97" stroke="#ffffff"></path></g></svg>